Abducted (2013) DVDRip

Screens:
 
http://imageshack.us/a/img688/9290/vlcsnap2013011107h06m51.png
 
http://imageshack.us/a/img823/6940/vlcsnap2013011107h07m17.png
 
http://imageshack.us/a/img69/7391/vlcsnap2013011107h08m01.png

[General]
Format: AVI
Format/Info: Audio Video Interleave
File size: 699 MiB
Duration: 1h 31mn
Overall bit rate: 1 073 Kbps

[Video]
Format: xvid
Codec ID: xvid
Duration: 1h 31mn
Bit rate: 932 Kbps
Width: 624 pixels
Height: 360 pixels
Display aspect ratio: 1.733
Frame rate: 23.976 fps
Bits/(Pixel*Frame): 0.173
Stream size: 608 MiB (87%)

[Audio]
Format: MPEG Audio
Format version: Version 1
Format profile: Layer 3
Mode: Joint stereo
Mode extension: MS Stereo
Codec ID: 55
Codec ID/Hint: MP3
Duration: 1h 31mn
Bit rate mode: Constant
Bit rate: 128 Kbps
Channel(s): 2 channels
Sampling rate: 48.0 KHz
Compression mode: Lossy
Stream size: 83.5 MiB (12%)
Alignment: Aligned on interleaves
Interleave, duration: 24 ms (0.58 video frame)